<!-- Generator: Adobe Illustrator 22.0.1, SVG Export Plug-In  -->
<svg version="1.1"
	 xmlns="http://www.w3.org/2000/svg" xmlns:xlink="http://www.w3.org/1999/xlink" xmlns:a="http://ns.adobe.com/AdobeSVGViewerExtensions/3.0/"
	 x="0px" y="0px" width="395.322px" height="80.646px" viewBox="0 0 395.322 80.646"
	 style="overflow:scroll;enable-background:new 0 0 395.322 80.646;" xml:space="preserve">
<style type="text/css">
	.st0{fill:#FFFFFF;}
</style>
<defs>
</defs>
<g>
	<path class="st0" d="M136.844,77.338c-2.62,0.76-5.997,1.466-10.133,2.12c-4.136,0.654-8.478,0.982-13.027,0.982
		c-4.618,0-8.462-0.621-11.528-1.861c-3.067-1.241-5.498-2.98-7.289-5.222c-1.793-2.239-3.068-4.911-3.825-8.013
		c-0.76-3.103-1.138-6.514-1.138-10.236V24.815h15.405v28.433c0,4.963,0.654,8.548,1.965,10.753
		c1.309,2.207,3.756,3.309,7.341,3.309c1.102,0,2.274-0.052,3.516-0.154c1.24-0.104,2.342-0.224,3.309-0.362V24.815h15.405V77.338z"
		/>
	<path class="st0" d="M148.733,52.42c0-4.823,0.74-9.047,2.224-12.665c1.481-3.619,3.428-6.634,5.842-9.047
		c2.411-2.412,5.186-4.239,8.323-5.48c3.136-1.24,6.358-1.861,9.667-1.861c7.719,0,13.819,2.362,18.301,7.083
		c4.479,4.722,6.721,11.667,6.721,20.834c0,0.896-0.036,1.879-0.104,2.946c-0.069,1.069-0.139,2.017-0.207,2.844h-34.947
		c0.345,3.171,1.826,5.687,4.446,7.548c2.619,1.86,6.134,2.791,10.546,2.791c2.826,0,5.6-0.258,8.323-0.775
		c2.723-0.517,4.945-1.153,6.669-1.913l2.068,12.511c-0.827,0.414-1.931,0.827-3.309,1.241c-1.38,0.413-2.913,0.775-4.602,1.086
		c-1.689,0.31-3.499,0.568-5.428,0.775c-1.931,0.206-3.861,0.31-5.79,0.31c-4.895,0-9.15-0.724-12.77-2.171
		c-3.619-1.447-6.617-3.429-8.995-5.945c-2.378-2.516-4.136-5.496-5.273-8.943C149.302,60.141,148.733,56.419,148.733,52.42z
		 M184.921,46.526c-0.069-1.308-0.294-2.584-0.673-3.825c-0.379-1.24-0.966-2.343-1.757-3.309c-0.794-0.965-1.794-1.758-2.999-2.378
		c-1.207-0.62-2.706-0.931-4.497-0.931c-1.724,0-3.205,0.294-4.446,0.879c-1.24,0.587-2.274,1.362-3.102,2.326
		c-0.827,0.967-1.466,2.086-1.913,3.36c-0.449,1.276-0.775,2.569-0.982,3.877H184.921z"/>
	<path class="st0" d="M211.699,26.675c2.619-0.757,5.997-1.463,10.133-2.119c4.136-0.654,8.479-0.982,13.027-0.982
		c4.617,0,8.461,0.604,11.528,1.81c3.066,1.207,5.496,2.913,7.29,5.118c1.791,2.207,3.065,4.825,3.825,7.857
		c0.758,3.034,1.138,6.411,1.138,10.133v30.708h-15.406V50.353c0-4.963-0.656-8.479-1.964-10.546
		c-1.311-2.068-3.758-3.103-7.342-3.103c-1.103,0-2.274,0.052-3.515,0.155c-1.241,0.103-2.345,0.225-3.309,0.362v41.978h-15.406
		V26.675z"/>
	<path class="st0" d="M272.08,11.27l15.405-2.481v16.026h18.508v12.82h-18.508v19.128c0,3.241,0.569,5.826,1.706,7.755
		c1.138,1.931,3.429,2.895,6.876,2.895c1.654,0,3.36-0.155,5.118-0.465c1.758-0.311,3.36-0.74,4.808-1.293l2.171,11.994
		c-1.86,0.759-3.929,1.413-6.203,1.965c-2.274,0.551-5.066,0.827-8.375,0.827c-4.205,0-7.686-0.569-10.442-1.706
		c-2.758-1.138-4.963-2.723-6.617-4.757c-1.654-2.032-2.809-4.497-3.464-7.393c-0.656-2.895-0.983-6.1-0.983-9.615V11.27z"/>
	<path class="st0" d="M335.356,9.099c0,2.827-0.914,5.05-2.74,6.669c-1.827,1.62-3.98,2.43-6.462,2.43
		c-2.482,0-4.637-0.81-6.462-2.43c-1.827-1.619-2.74-3.842-2.74-6.669c0-2.826,0.913-5.049,2.74-6.669
		c1.825-1.619,3.98-2.43,6.462-2.43c2.481,0,4.635,0.811,6.462,2.43C334.442,4.05,335.356,6.273,335.356,9.099z M333.908,79.199
		h-15.406V24.815h15.406V79.199z"/>
	<path class="st0" d="M348.381,26.675c2.619-0.757,5.997-1.463,10.133-2.119c4.136-0.654,8.479-0.982,13.027-0.982
		c4.617,0,8.461,0.604,11.528,1.81c3.066,1.207,5.496,2.913,7.29,5.118c1.791,2.207,3.065,4.825,3.825,7.857
		c0.758,3.034,1.138,6.411,1.138,10.133v30.708h-15.406V50.353c0-4.963-0.656-8.479-1.964-10.546
		c-1.31-2.068-3.758-3.103-7.342-3.103c-1.103,0-2.274,0.052-3.515,0.155c-1.241,0.103-2.345,0.225-3.309,0.362v41.978h-15.406
		V26.675z"/>
</g>
<g>
	<path class="st0" d="M67.629,44.943c-0.578-0.156-1.19,0.181-1.328,0.762c-0.17,0.71-0.302,1.09-0.646,2.058
		c-0.2,0.563,0.094,1.183,0.657,1.382c0.564,0.2,1.132-0.115,1.383-0.658c0.271-0.583,0.539-1.639,0.695-2.217
		C68.547,45.694,68.204,45.098,67.629,44.943z"/>
	<path class="st0" d="M58.169,42.623c-0.141,0.718-0.257,1.103-0.562,2.084c-0.177,0.57,0.144,1.177,0.714,1.354
		c0.571,0.176,1.126-0.161,1.355-0.713c0.246-0.595,0.471-1.661,0.603-2.244c0.133-0.582-0.233-1.163-0.814-1.295
		C58.882,41.676,58.283,42.038,58.169,42.623z"/>
	<path class="st0" d="M66.753,61.716V58.49H38.966c-10.783,0-19.524-8.741-19.524-19.524c0-10.783,8.741-19.524,19.524-19.524
		c8.736,0,16.124,5.741,18.617,13.654c0.377,1.299,0.813,2.921,0.858,4.48c0.017,0.597,0.562,1.044,1.159,1
		c0.595-0.043,1.051-0.562,1.001-1.157c-0.126-1.482-0.403-2.853-0.649-3.917c-0.135-0.582,0.195-1.169,0.773-1.32
		c0.578-0.151,1.162,0.197,1.319,0.774c0.513,1.879,0.793,4.247,0.797,6.009c0.001,0.598,0.448,1.098,1.045,1.118
		c0.596,0.02,1.113-0.346,1.086-0.943c-0.03-0.691-0.045-1.987-0.153-3.049c-0.061-0.594,0.361-1.129,0.956-1.195
		c0.593-0.067,1.131,0.361,1.195,0.955c0.137,1.277,0.26,4.34-0.004,6.474c-0.073,0.593,0.413,1.111,1.009,1.15
		c0.596,0.039,1.091-0.414,1.151-1.009c0.143-1.417,0.224-3.086,0.151-4.626h0.01c-0.002-0.038-0.01-0.074-0.016-0.112
		c-0.072-1.44-0.219-2.756-0.355-3.621c-0.092-0.589,0.302-1.146,0.894-1.241c0.589-0.096,1.146,0.304,1.24,0.894
		c0.346,2.161,0.593,5.529,0.303,7.967c-0.07,0.593,0.392,1.119,0.987,1.169c0.595,0.051,1.136-0.39,1.17-0.987
		c0.055-0.964,0.108-2.573,0.108-3.065c0-0.7,0.552-1.049,1.149-1.012c0.595,0.036,0.995,0.549,1.012,1.147
		c0.079,2.91-0.603,7.81-1.412,10.157c-0.194,0.565,0.167,1.173,0.742,1.338c0.575,0.165,1.179-0.165,1.338-0.742
		c1.021-3.719,1.488-7.01,1.488-10.766C77.932,17.446,60.487,0,38.966,0C17.446,0,0,17.446,0,38.966s17.446,38.966,38.966,38.966
		h17.798v-2.986h2.17v-3.57h4.27V69.31h-2.94v-2.17h6.488v-2.485h-3.548v-2.94H66.753z"/>
	<rect x="68.734" y="58.49" class="st0" width="2.17" height="3.226"/>
	<rect x="71.232" y="64.656" class="st0" width="3.569" height="2.485"/>
	<rect x="62.574" y="74.106" class="st0" width="6.16" height="2.73"/>
	<rect x="68.689" y="69.31" class="st0" width="2.756" height="2.065"/>
</g>
</svg>