<!-- Generator: Adobe Illustrator 22.0.1, SVG Export Plug-In  -->
<svg version="1.1"
	 xmlns="http://www.w3.org/2000/svg" xmlns:xlink="http://www.w3.org/1999/xlink" xmlns:a="http://ns.adobe.com/AdobeSVGViewerExtensions/3.0/"
	 x="0px" y="0px" width="1717px" height="3017.044px" viewBox="0 0 1717 3017.044"
	 style="overflow:scroll;enable-background:new 0 0 1717 3017.044;" xml:space="preserve">
<style type="text/css">
	.st0{fill:#FFFFFF;}
	.st1{fill:#E6E6E6;}
	.st2{fill:#808080;}
</style>
<defs>
</defs>
<path class="st0" d="M229,516c-59,224,292,383,312,579s-271.025,336.466-319,513c-128,471,1057,414,979,1392
	c-22.021,276.114,249-2894,249-2894L229,516z"/>
<path class="st1" d="M397,429c-59,224,158.711,376.433,219,564c108,336-39.025,426.466-87,603c-128,471,918,339,840,1317
	c-22.021,276.114,249-2894,249-2894L397,429z"/>
<path class="st2" d="M496,410c-59,224,292,383,312,579s-318.025,328.466-366,505c-128,471,1104,422,1026,1400
	C1445.979,3170.114,1717,0,1717,0L496,410z"/>
<circle class="st0" cx="387" cy="1104" r="93"/>
<circle class="st0" cx="47" cy="1475" r="47"/>
<circle class="st0" cx="151" cy="838" r="17"/>
</svg>